<svg width="97" height="20" viewBox="0 0 97 20" fill="none" xmlns="http://www.w3.org/2000/svg">
<path d="M7.436 19C6.72533 17.492 6.02333 15.9233 5.33 14.294C4.63667 12.6647 3.978 11.0527 3.354 9.458C2.73 7.86333 2.14933 6.338 1.612 4.882C1.092 3.426 0.641333 2.126 0.26 0.982H4.732C5.07867 2.022 5.45133 3.14867 5.85 4.362C6.266 5.558 6.682 6.754 7.098 7.95C7.53133 9.146 7.94733 10.29 8.346 11.382C8.74467 12.474 9.11733 13.4187 9.464 14.216C9.79333 13.4187 10.1573 12.474 10.556 11.382C10.972 10.29 11.388 9.146 11.804 7.95C12.2373 6.754 12.6533 5.558 13.052 4.362C13.468 3.14867 13.8493 2.022 14.196 0.982H18.512C18.1133 2.126 17.654 3.426 17.134 4.882C16.614 6.338 16.042 7.86333 15.418 9.458C14.794 11.0527 14.1353 12.6647 13.442 14.294C12.7487 15.9233 12.0467 17.492 11.336 19H7.436ZM31.2065 19C31.0158 18.376 30.7992 17.7347 30.5565 17.076C30.3312 16.4173 30.1058 15.7587 29.8805 15.1H22.8605C22.6352 15.7587 22.4012 16.4173 22.1585 17.076C21.9332 17.7347 21.7252 18.376 21.5345 19H17.3225C17.9985 17.0587 18.6398 15.2647 19.2465 13.618C19.8532 11.9713 20.4425 10.42 21.0145 8.964C21.6038 7.508 22.1758 6.13 22.7305 4.83C23.3025 3.51267 23.8918 2.23 24.4985 0.982H28.3725C28.9618 2.23 29.5425 3.51267 30.1145 4.83C30.6865 6.13 31.2585 7.508 31.8305 8.964C32.4198 10.42 33.0178 11.9713 33.6245 13.618C34.2312 15.2647 34.8725 17.0587 35.5485 19H31.2065ZM26.3445 5.064C26.2578 5.324 26.1278 5.67933 25.9545 6.13C25.7812 6.58067 25.5818 7.10067 25.3565 7.69C25.1312 8.27933 24.8798 8.92933 24.6025 9.64C24.3425 10.3507 24.0738 11.096 23.7965 11.876H28.9185C28.6412 11.096 28.3725 10.3507 28.1125 9.64C27.8525 8.92933 27.6012 8.27933 27.3585 7.69C27.1332 7.10067 26.9338 6.58067 26.7605 6.13C26.5872 5.67933 26.4485 5.324 26.3445 5.064ZM44.419 19.364C43.1536 19.364 42.0616 19.1907 41.143 18.844C40.2243 18.48 39.4616 17.986 38.855 17.362C38.2656 16.7207 37.8236 15.9667 37.529 15.1C37.2516 14.216 37.113 13.2453 37.113 12.188V0.982H41.169V11.85C41.169 12.578 41.247 13.202 41.403 13.722C41.5763 14.2247 41.8016 14.6407 42.079 14.97C42.3736 15.282 42.7203 15.5073 43.119 15.646C43.535 15.7847 43.9856 15.854 44.471 15.854C45.459 15.854 46.2563 15.5507 46.863 14.944C47.487 14.3373 47.799 13.306 47.799 11.85V0.982H51.855V12.188C51.855 13.2453 51.7076 14.216 51.413 15.1C51.1183 15.984 50.6676 16.7467 50.061 17.388C49.4543 18.012 48.683 18.4973 47.747 18.844C46.811 19.1907 45.7016 19.364 44.419 19.364ZM67.7938 15.516V19H55.7558V0.982H59.8118V15.516H67.7938ZM81.7389 0.982V4.44H76.3049V19H72.2489V4.44H66.8149V0.982H81.7389ZM89.2596 15.906C89.8316 15.906 90.2996 15.8627 90.6636 15.776C91.045 15.672 91.3483 15.542 91.5736 15.386C91.799 15.2127 91.955 15.0133 92.0416 14.788C92.1283 14.5627 92.1716 14.3113 92.1716 14.034C92.1716 13.4447 91.8943 12.9593 91.3396 12.578C90.785 12.1793 89.8316 11.7547 88.4796 11.304C87.8903 11.096 87.301 10.862 86.7116 10.602C86.1223 10.3247 85.5936 9.98667 85.1256 9.588C84.6576 9.172 84.2763 8.678 83.9816 8.106C83.687 7.51667 83.5396 6.806 83.5396 5.974C83.5396 5.142 83.6956 4.39667 84.0076 3.738C84.3196 3.062 84.7616 2.49 85.3336 2.022C85.9056 1.554 86.599 1.19867 87.4136 0.956C88.2283 0.695999 89.147 0.565999 90.1696 0.565999C91.383 0.565999 92.4316 0.695999 93.3156 0.956C94.1996 1.216 94.9276 1.502 95.4996 1.814L94.3296 5.012C93.827 4.752 93.2636 4.52667 92.6396 4.336C92.033 4.128 91.2963 4.024 90.4296 4.024C89.459 4.024 88.757 4.16267 88.3236 4.44C87.9076 4.7 87.6996 5.10733 87.6996 5.662C87.6996 5.99133 87.7776 6.26867 87.9336 6.494C88.0896 6.71933 88.3063 6.92733 88.5836 7.118C88.8783 7.29133 89.2076 7.456 89.5716 7.612C89.953 7.75067 90.369 7.898 90.8196 8.054C91.7556 8.40067 92.5703 8.74733 93.2636 9.094C93.957 9.42333 94.529 9.81333 94.9796 10.264C95.4476 10.7147 95.7943 11.2433 96.0196 11.85C96.245 12.4567 96.3576 13.1933 96.3576 14.06C96.3576 15.7413 95.7683 17.05 94.5896 17.986C93.411 18.9047 91.6343 19.364 89.2596 19.364C88.4623 19.364 87.743 19.312 87.1016 19.208C86.4603 19.1213 85.8883 19.0087 85.3856 18.87C84.9003 18.7313 84.4756 18.584 84.1116 18.428C83.765 18.272 83.4703 18.1247 83.2276 17.986L84.3716 14.762C84.909 15.0567 85.5676 15.3253 86.3476 15.568C87.145 15.7933 88.1156 15.906 89.2596 15.906Z" fill="#F1F1F1"/>
</svg>
