<svg width="32" height="32" viewBox="0 0 32 32" fill="none" xmlns="http://www.w3.org/2000/svg">
<path d="M24 10.6666V9.59998C24 8.10651 24 7.35977 23.7093 6.78934C23.4537 6.28757 23.0457 5.87962 22.544 5.62397C21.9736 5.33331 21.2268 5.33331 19.7333 5.33331H8.26667C6.77319 5.33331 6.02645 5.33331 5.45603 5.62397C4.95425 5.87962 4.54631 6.28757 4.29065 6.78934C4 7.35977 4 8.10651 4 9.59998V10.6666M4 10.6666V22.4C4 23.8934 4 24.6402 4.29065 25.2106C4.54631 25.7124 4.95425 26.1204 5.45603 26.376C6.02645 26.6666 6.77319 26.6666 8.26667 26.6666H23.7333C25.2268 26.6666 25.9736 26.6666 26.544 26.376C27.0457 26.1204 27.4537 25.7124 27.7093 25.2106C28 24.6402 28 23.8934 28 22.4V14.9333C28 13.4398 28 12.6931 27.7093 12.1227C27.4537 11.6209 27.0457 11.213 26.544 10.9573C25.9736 10.6666 25.2268 10.6666 23.7333 10.6666H4ZM28 16H25.3333C23.8605 16 22.6667 17.1938 22.6667 18.6666C22.6667 20.1394 23.8605 21.3333 25.3333 21.3333H28" stroke="#7A80C7" stroke-width="2" stroke-linecap="round" stroke-linejoin="round"/>
</svg>
